<?xml version="1.0" encoding="UTF-8"?>
<svg width="14px" height="12px" viewBox="0 0 14 12" version="1.1" xmlns="http://www.w3.org/2000/svg" xmlns:xlink="http://www.w3.org/1999/xlink">
    <!-- Generator: Sketch 54.1 (76490) - https://sketchapp.com -->
    <title>排序</title>
    <desc>Created with Sketch.</desc>
    <g stroke="none" stroke-width="1" fill="none" fill-rule="evenodd">
        <g transform="translate(-1282.000000, -47.000000)" fill="#8B572A" fill-rule="nonzero">
            <g transform="translate(960.000000, 36.000000)">
                <g transform="translate(261.000000, 7.000000)">
                    <g transform="translate(61.000000, 4.000000)">
                        <g>
                            <path d="M12.9855917,8.11475819 C13.2140322,7.89208663 13.5844074,7.89208663 13.8128479,8.11475819 C14.0412883,8.33742975 14.0412883,8.69845168 13.8128479,8.92112324 L11.4825488,11.1925741 C11.2541083,11.4152457 10.8837331,11.4152457 10.6552926,11.1925741 C10.4268521,10.9699025 10.4268521,10.6088806 10.6552926,10.386209 L12.9855917,8.11475819 Z"></path>
                            <path d="M11.6514954,10.7893916 C11.6514954,11.1030135 11.3906678,11.3572543 11.0689207,11.3572543 C10.7471735,11.3572543 10.4863459,11.1030135 10.4863459,10.7893916 L10.4863459,0.567862715 C10.4863459,0.254240797 10.7471735,0 11.0689207,0 C11.3906678,0 11.6514954,0.254240797 11.6514954,0.567862715 L11.6514954,10.7893916 Z M0.582574772,1.13572543 C0.26082761,1.13572543 0,0.881484632 0,0.567862715 C0,0.254240797 0.26082761,0 0.582574772,0 L8.73862159,0 C9.06036875,0 9.32119636,0.254240797 9.32119636,0.567862715 C9.32119636,0.881484632 9.06036875,1.13572543 8.73862159,1.13572543 L0.582574772,1.13572543 Z M0.582574772,4.54290172 C0.26082761,4.54290172 0,4.28866092 0,3.975039 C0,3.66141708 0.26082761,3.40717629 0.582574772,3.40717629 L8.73862159,3.40717629 C9.06036875,3.40717629 9.32119636,3.66141708 9.32119636,3.975039 C9.32119636,4.28866092 9.06036875,4.54290172 8.73862159,4.54290172 L0.582574772,4.54290172 Z M0.582574772,7.950078 C0.26082761,7.950078 0,7.69583721 0,7.38221529 C0,7.06859337 0.26082761,6.81435257 0.582574772,6.81435257 L8.73862159,6.81435257 C9.06036875,6.81435257 9.32119636,7.06859337 9.32119636,7.38221529 C9.32119636,7.69583721 9.06036875,7.950078 8.73862159,7.950078 L0.582574772,7.950078 Z M0.582574772,11.3572543 C0.26082761,11.3572543 0,11.1030135 0,10.7893916 C0,10.4757697 0.26082761,10.2215289 0.582574772,10.2215289 L8.73862159,10.2215289 C9.06036875,10.2215289 9.32119636,10.4757697 9.32119636,10.7893916 C9.32119636,11.1030135 9.06036875,11.3572543 8.73862159,11.3572543 L0.582574772,11.3572543 Z"></path>
                        </g>
                    </g>
                </g>
            </g>
        </g>
    </g>
</svg>