<?xml version="1.0" encoding="UTF-8"?>
<svg width="44px" height="44px" viewBox="0 0 44 44" version="1.1" xmlns="http://www.w3.org/2000/svg" xmlns:xlink="http://www.w3.org/1999/xlink">
    <!-- Generator: Sketch 55.2 (78181) - https://sketchapp.com -->
    <title>包装</title>
    <desc>Created with Sketch.</desc>
    <g stroke="none" stroke-width="1" fill="none" fill-rule="evenodd">
        <g fill-rule="nonzero">
            <path d="M0,22.0000256 L0,22.0000289 C0,34.1503165 9.84973802,44.0000545 22.0000256,44.0000545 C34.1503132,44.0000545 44.0000512,34.1503165 44.0000512,22.0000289 L44.0000512,22.0000289 C44.0000512,9.84974135 34.1503132,3.32190933e-06 22.0000256,3.32190933e-06 C9.84973802,3.32190933e-06 0,9.84974135 0,22.0000289 L0,22.0000256 Z" fill="#007AFF"></path>
            <path d="M30.4289573,13.8361684 L13.5710939,13.8361684 C13.0939855,13.8361684 12.7228984,14.207253 12.7228984,14.684364 L12.7228984,17.7590652 C12.7228984,18.2361736 13.093983,18.6072607 13.5710939,18.6072607 L14.3132639,18.6072607 L14.3132639,28.6265536 C14.3132639,29.4747491 15.0024233,30.1108936 15.7976039,30.1108936 L28.1494152,30.1108936 C28.9976107,30.1108936 29.6867658,29.4217342 29.6867658,28.6265536 L29.6867658,18.6072607 L30.4289358,18.6072607 C30.9060442,18.6072607 31.2771313,18.2361761 31.2771313,17.7590652 L31.2771313,14.684364 C31.2771313,14.2072556 30.9060463,13.8361684 30.4289358,13.8361684 L30.4289573,13.8361684 Z M28.5735344,28.626545 C28.5735344,28.8385935 28.4144983,28.99763 28.2024494,28.99763 L15.7976147,28.99763 C15.5855662,28.99763 15.4265301,28.8385939 15.4265301,28.626545 L15.4265301,18.6072521 L28.5735344,18.6072521 L28.5735344,28.626545 L28.5735344,28.626545 Z M30.1638956,17.4940165 L13.8361813,17.4940165 L13.8361813,14.9494342 L30.1638956,14.9494342 L30.1638956,17.4940165 Z" fill="#FFFFFF"></path>
            <path d="M18.5012051,22.1060296 L25.4988031,22.1060296 C25.8168758,22.1060296 26.081937,21.8409689 26.081937,21.5228957 C26.081937,21.2048231 25.8168762,20.9397619 25.4988031,20.9397619 L18.5012051,20.9397619 C18.1831324,20.9397619 17.9710861,21.2048226 17.9710861,21.5228957 C17.9710861,21.8409684 18.1831346,22.1060296 18.5012051,22.1060296 L18.5012051,22.1060296 Z" fill="#FFFFFF"></path>
        </g>
    </g>
</svg>