<?xml version="1.0" encoding="UTF-8"?>
<svg width="32px" height="32px" viewBox="0 0 32 32" version="1.1" xmlns="http://www.w3.org/2000/svg" xmlns:xlink="http://www.w3.org/1999/xlink">
    <!-- Generator: Sketch 50.2 (55047) - http://www.bohemiancoding.com/sketch -->
    <title>清除@1x</title>
    <desc>Created with Sketch.</desc>
    <defs></defs>
    <g stroke="none" stroke-width="1" fill="none" fill-rule="evenodd">
        <g transform="translate(-1172.000000, -135.000000)" fill-rule="nonzero">
            <g transform="translate(1171.000000, 134.000000)">
                <rect fill="#000000" opacity="0" x="0" y="0" width="34" height="34"></rect>
                <path d="M25.340625,12.1291016 L31.5894531,5.89355469 C32.4925781,4.99375 32.4925781,3.5328125 31.5927734,2.6296875 C30.6929688,1.72988281 29.2353516,1.72988281 28.3322266,2.62636719 L22.0767578,8.86855469 C21.99375,8.87851563 21.9339844,8.88515625 21.8509766,8.89511719 C19.4470703,7.50058594 16.6613281,7.50722656 14.5197266,9.55253906 C14.4566406,9.61230469 14.4533203,9.721875 14.5164063,9.78496094 L24.4242188,19.6927734 C24.4873047,19.7558594 24.596875,19.7525391 24.6566406,19.6894531 C26.6986328,17.5445313 26.7052734,14.7621094 25.3140625,12.3582031 C25.3207031,12.271875 25.3306641,12.2154297 25.340625,12.1291016 Z" fill="#A4A1A1"></path>
                <path d="M8.66269531,7.09550781 C8.66269531,8.18476004 9.54570871,9.06777344 10.6349609,9.06777344 C11.7242132,9.06777344 12.6072266,8.18476004 12.6072266,7.09550781 C12.6072266,6.00625559 11.7242132,5.12324219 10.6349609,5.12324219 C9.54570871,5.12324219 8.66269531,6.00625559 8.66269531,7.09550781 Z" fill="#A4A1A1"></path>
                <path d="M20.6091797,28.8900391 C20.6091797,30.254355 21.7151763,31.3603516 23.0794922,31.3603516 C24.4438081,31.3603516 25.5498047,30.254355 25.5498047,28.8900391 C25.5498047,27.5257231 24.4438081,26.4197266 23.0794922,26.4197266 C21.7151763,26.4197266 20.6091797,27.5257231 20.6091797,28.8900391 Z" fill="#A4A1A1"></path>
                <path d="M26.1109375,26.2802734 C26.1109375,27.0229454 26.7129921,27.625 27.4556641,27.625 C28.198336,27.625 28.8003906,27.0229454 28.8003906,26.2802734 C28.8003906,25.5376015 28.198336,24.9355469 27.4556641,24.9355469 C26.7129921,24.9355469 26.1109375,25.5376015 26.1109375,26.2802734 Z" fill="#A4A1A1"></path>
                <path d="M12.7566406,11.3753906 L22.6345703,21.25 C22.7076172,21.3230469 22.7242188,21.4326172 22.6710938,21.5222656 C22.1365234,22.3755859 19.44375,26.8978516 18.7232422,32.8744141 C18.7166016,32.9242187 18.6634766,32.9507812 18.6203125,32.9275391 L15.2667969,30.9054687 C15.2369141,30.8855469 15.2236328,30.8490234 15.2402344,30.8158203 C15.5556641,30.1550781 18.5738281,23.8332031 18.2650391,24.1419922 C17.9396484,24.4673828 15.8511719,26.6853516 14.2873047,28.953125 L13.3875,30.1916016 C13.3875,30.1916016 9.85800781,27.8175781 8.76894531,26.3400391 C8.75234375,26.3167969 8.74902344,26.296875 8.76894531,26.2769531 C9.48613281,25.4070312 13.2181641,20.5560547 13.2181641,20.5560547 L6.87304688,24.3611328 C6.84316406,24.3777344 6.80996094,24.3744141 6.78671875,24.3478516 C6.47792969,24.0058594 4.35957031,21.6650391 3.74863281,20.5660156 C3.73535156,20.5427734 3.73535156,20.5228516 3.75859375,20.5029297 C4.36289063,20.0148437 7.77949219,17.1195312 7.77949219,17.1195312 L2.96835938,18.8228516 C2.93515625,18.8328125 2.89863281,18.8195312 2.88203125,18.7896484 L1.10234375,15.4494141 C1.07910156,15.4095703 1.09570313,15.3597656 1.1421875,15.3498047 C1.98886719,15.1804687 9.05449219,13.7128906 12.484375,11.3455078 C12.5707031,11.2857422 12.6835938,11.2990234 12.7566406,11.3753906 Z" fill="#A4A1A1"></path>
            </g>
        </g>
    </g>
</svg>