<?xml version="1.0" standalone="no"?><!DOCTYPE svg PUBLIC "-//W3C//DTD SVG 1.1//EN" "http://www.w3.org/Graphics/SVG/1.1/DTD/svg11.dtd"><svg t="1554285402950" class="icon" style="" viewBox="0 0 1024 1024" version="1.1" xmlns="http://www.w3.org/2000/svg" p-id="5073" xmlns:xlink="http://www.w3.org/1999/xlink" width="16" height="16"><defs><style type="text/css"></style></defs><path d="M913.92 908.8 913.92 908.8c-28.16 28.16-61.44 40.96-99.84 40.96-38.4 0-71.68-12.8-99.84-40.96l-207.36-207.36-202.24 202.24c-28.16 28.16-58.88 43.52-94.72 46.08-35.84 2.56-66.56-7.68-94.72-35.84-28.16-28.16-40.96-61.44-40.96-99.84 0-38.4 12.8-71.68 40.96-99.84l202.24-202.24-202.24-202.24C87.04 281.6 74.24 248.32 74.24 209.92c0-38.4 12.8-74.24 40.96-99.84 28.16-25.6 58.88-38.4 94.72-35.84 35.84 2.56 66.56 17.92 94.72 43.52l202.24 202.24 207.36-204.8c28.16-28.16 61.44-40.96 99.84-40.96 38.4 0 71.68 12.8 99.84 40.96 28.16 28.16 40.96 58.88 35.84 94.72-2.56 35.84-17.92 66.56-46.08 94.72L696.32 512l207.36 207.36c28.16 28.16 43.52 58.88 46.08 94.72C952.32 849.92 942.08 880.64 913.92 908.8L913.92 908.8z" p-id="5074" fill="#515151"></path></svg>