<?xml version="1.0" encoding="UTF-8"?>
<svg width="14px" height="14px" viewBox="0 0 14 14" version="1.1" xmlns="http://www.w3.org/2000/svg" xmlns:xlink="http://www.w3.org/1999/xlink">
    <!-- Generator: Sketch 54.1 (76490) - https://sketchapp.com -->
    <title>升降序</title>
    <desc>Created with Sketch.</desc>
    <g stroke="none" stroke-width="1" fill="none" fill-rule="evenodd">
        <g transform="translate(-1289.000000, -803.000000)" fill="#8B572A" fill-rule="nonzero">
            <g transform="translate(1228.000000, 800.000000)">
                <g transform="translate(61.000000, 3.000000)">
                    <g transform="translate(1.000000, 0.000000)">
                        <path d="M4.95683197,0.0985210003 C4.72690958,0.00155786877 4.4577328,0.0528912618 4.28389001,0.235410048 L0.863107189,3.71466779 C0.706087454,3.87437162 0.638793751,4.1082238 0.700479494,4.32496535 C0.756557936,4.5417069 0.924792933,4.71281821 1.14349907,4.77555791 C1.35659791,4.83259496 1.58651865,4.7698542 1.74353953,4.61015025 L4.09883639,2.20317892 L4.09883639,13.2626677 C4.09322855,13.4908156 4.21099344,13.701854 4.40726757,13.8216319 C4.60354286,13.9357061 4.83907255,13.9357061 5.03534619,13.8216319 C5.23162147,13.7075576 5.34377737,13.4908172 5.34377737,13.2626677 L5.34377737,0.680288259 C5.33816953,0.423621294 5.18675764,0.195473437 4.95683575,0.0985098045 M12.4993881,9.33852056 C12.2582511,9.09326157 11.8657005,9.09326157 11.6245635,9.33852056 L9.25804548,11.739777 L9.25804548,0.680288259 C9.25243764,0.338065639 8.97765245,0.0642875425 8.64118147,0.0642875425 C8.30471049,0.0642875425 8.02992641,0.338065639 8.02431746,0.680288259 L8.02431746,13.2569696 C8.02431746,13.5136365 8.1757294,13.7417844 8.40565179,13.838748 C8.63557417,13.9357111 8.90475096,13.8843778 9.07859375,13.701859 L12.4993766,10.2226012 C12.7405136,9.9830454 12.7405136,9.58378623 12.4993766,9.33852557"></path>
                    </g>
                </g>
            </g>
        </g>
    </g>
</svg>