<?xml version="1.0" encoding="UTF-8"?>
<svg width="14px" height="14px" viewBox="0 0 14 14" version="1.1" xmlns="http://www.w3.org/2000/svg" xmlns:xlink="http://www.w3.org/1999/xlink">
    <!-- Generator: Sketch 54.1 (76490) - https://sketchapp.com -->
    <title>编组 7</title>
    <desc>Created with Sketch.</desc>
    <g stroke="none" stroke-width="1" fill="none" fill-rule="evenodd">
        <g transform="translate(-1315.000000, -833.000000)" fill-rule="nonzero">
            <g transform="translate(1228.000000, 830.000000)">
                <g transform="translate(87.000000, 3.000000)">
                    <g transform="translate(1.000000, 0.000000)">
                        <path d="M11.8216033,9.28816426 C11.5804664,9.04290527 11.1879158,9.04290527 10.9467788,9.28816426 L8.58026076,11.6894207 L8.58026076,0.629931961 C8.57465292,0.287709341 8.29986773,0.0139312444 7.96339675,0.0139312444 C7.62692577,0.0139312444 7.35214168,0.287709341 7.34653274,0.629931961 L7.34653274,13.2066133 C7.34653274,13.4632802 7.49794468,13.6914281 7.72786706,13.7883917 C7.95778945,13.8853548 8.22696623,13.8340215 8.40080902,13.6515027 L11.8215918,10.1722449 C12.0627288,9.9326891 12.0627288,9.53342993 11.8215918,9.28816927" fill="#F9AE08"></path>
                        <path d="M4.27904724,0.0481647022 C4.04912486,-0.0487984293 3.77994807,0.00253496381 3.60610528,0.18505375 L0.185322465,3.66431149 C0.0283027291,3.82401532 -0.038990974,4.0578675 0.0226947699,4.27460905 C0.0787732118,4.4913506 0.247008209,4.66246191 0.465714346,4.72520161 C0.67881318,4.78223866 0.908733921,4.71949791 1.06575481,4.55979396 L3.42105167,2.15282262 L3.42105167,13.2123114 C3.41544382,13.4404593 3.53320871,13.6514977 3.72948285,13.7712756 C3.92575814,13.8853498 4.16128782,13.8853498 4.35756146,13.7712756 C4.55383675,13.6572013 4.66599265,13.4404609 4.66599265,13.2123114 L4.66599265,0.629931961 C4.6603848,0.373264996 4.50897291,0.145117139 4.27905102,0.0481535065" fill="#8B572A"></path>
                    </g>
                </g>
            </g>
        </g>
    </g>
</svg>