<?xml version="1.0" encoding="UTF-8"?>
<svg width="12px" height="14px" viewBox="0 0 12 14" version="1.1" xmlns="http://www.w3.org/2000/svg" xmlns:xlink="http://www.w3.org/1999/xlink">
    <g stroke="none" stroke-width="1" fill="none" fill-rule="evenodd">
        <g transform="translate(-2.000000, -1.000000)" fill="#2C8D49" fill-rule="nonzero">
            <path d="M12.2944062,1 L3.56653125,1 C2.7013125,1 2,1.70996227 2,2.58573583 L2,13.4142642 C2,14.2901102 2.7013125,15 3.56653125,15 L12.2944062,15 C13.1596094,15 13.8609375,14.2901102 13.8609375,13.4142642 L13.8609375,2.58573583 C13.861,1.70996227 13.1596094,1 12.2944062,1 Z M4.03396875,4.777 L9.96134375,4.777 L9.96134375,5.70123438 L4.03396875,5.70123438 L4.03396875,4.777 Z M4.03396875,7.55385938 L11.9183281,7.55385938 L11.9183281,8.47951563 L4.03396875,8.47951563 L4.03396875,7.55385938 Z M4.03396875,10.3159687 L11.9183281,10.3159687 L11.9183281,11.241625 L4.03396875,11.241625 L4.03396875,10.3159687 Z"></path>
        </g>
    </g>
</svg>