<?xml version="1.0" encoding="UTF-8"?>
<svg width="30px" height="30px" viewBox="0 0 30 30" version="1.1" xmlns="http://www.w3.org/2000/svg" xmlns:xlink="http://www.w3.org/1999/xlink">
    <!-- Generator: Sketch 50.2 (55047) - http://www.bohemiancoding.com/sketch -->
    <title>搜索@1x</title>
    <desc>Created with Sketch.</desc>
    <defs></defs>
    <g stroke="none" stroke-width="1" fill="none" fill-rule="evenodd">
        <g transform="translate(-1173.000000, -242.000000)" fill="#FFFFFF" fill-rule="nonzero">
            <g transform="translate(1171.000000, 240.000000)">
                <rect opacity="0" x="0" y="0" width="34" height="34"></rect>
                <path d="M25,15.4078826 C25,9.87597305 20.5267525,5.3999939 15,5.3999939 C9.4732475,5.3999939 5,9.87597308 5,15.4078826 C5,20.9240508 9.4732475,25.3999939 15,25.3999939 C20.5267525,25.3999939 25,20.9240508 25,15.4078826 Z M28.7048941,31.3374632 L23.1153098,25.5991957 C20.8556719,27.3979701 18.0311329,28.5129242 14.9538733,28.5129242 C7.86281304,28.5129242 2.12454558,22.6111256 2.12454558,15.3416863 C2.12454558,8.05736509 7.86281304,2.1556005 14.9538733,2.1556005 C22.0300516,2.1556005 27.783201,8.05739909 27.783201,15.3416863 C27.783201,18.0918837 26.9506975,20.6488201 25.5532929,22.7598088 L25.7316719,22.9084581 L31.3212562,28.6467255 C32.0348064,29.3900056 32.0348064,30.5941492 31.3212562,31.3374632 C30.592892,32.0658953 29.4333262,32.0658953 28.7048941,31.3374632 Z"></path>
            </g>
        </g>
    </g>
</svg>