<svg height="16" viewBox="0 0 16 16" width="16" xmlns="http://www.w3.org/2000/svg"><g fill="none" fill-rule="evenodd"><path d="m7.5862069 15.1724138c-4.19019397 0-7.5862069-3.3960129-7.5862069-7.5862069 0-4.19019397 3.39601293-7.5862069 7.5862069-7.5862069 4.190194 0 7.5862069 3.39601293 7.5862069 7.5862069 0 4.190194-3.3960129 7.5862069-7.5862069 7.5862069z" fill="#ccc"/><path d="m11.0953604 4.59157402c.1876199-.18464187.190598-.48542943.0074452-.67453845-.1846419-.18761996-.4854294-.19059806-.6745385-.00744523l-2.92151085 2.86343805-2.9215109-2.861949c-.18761996-.18464188-.48989657-.18166378-.67453845.00744523-.18464187.18761997-.18166377.48989658.00744524.67453845l2.90810947 2.84705853-2.90810947 2.8485476c-.18761996.1846418-.19059806.4854294-.00744524.6745384.18464188.18762.48542944.1905981.67453845.0074453l2.9215109-2.86343809 2.92151085 2.86194899c.18762.1846419.4898966.1816638.6745385-.0074452.1846419-.18762.1816638-.4898966-.0074452-.6745385l-2.90810952-2.8470585z" fill="#fff"/></g></svg>