<svg height="22" viewBox="0 0 26 22" width="26" xmlns="http://www.w3.org/2000/svg"><path d="m18.6906821 9.0617669c1.4639505.02688483 2.6723943-1.14415526 2.6991382-2.61560015.0267481-1.47143601-1.1383347-2.6860589-2.6022941-2.7129395-.0322821-.00059285-.0645723-.0005929-.0968545-.00000016-1.4639505.02688482-2.6290379 1.24151239-2.6022941 2.7129395.0260597 1.43356526 1.1760216 2.5894088 2.6022941 2.61560015zm4.6369725-8.87833513h-21.64449186c-.86170948 0-1.54689626.704832-1.54689626 1.57094759v18.16646044c0 .8660933.68518678 1.5709476 1.54689626 1.5709476h21.64449186c.8616874 0 1.5468963-.7048543 1.5468963-1.5709476v-18.16646044c0-.86611559-.6852089-1.57094759-1.5468963-1.57094759zm-5.6911979 10.97101983h.0000001c-.1749776-.2121808-.4328169-.3377795-.7069314-.3443562-.2812418 0-.4794427.1328021-.7069092.315897l-1.0325251.8774993c-.2151896.1555695-.3869784.2608686-.6342429.2608686-.2234959.0013925-.4397472-.0796082-.6078309-.2276736l-.0000007-.0000006c-.080929-.074132-.1602284-.1500416-.2378411-.2276736l-2.9701824-3.22916259v-.00000001c-.2326184-.26693169-.5690578-.41923285-.92209881-.41741635-.36996768 0-.71257213.18405095-.9277617.43353582l-6.98706917 8.46756663v-14.45444751c.05474858-.37757349.34733827-.64982571.72296884-.64982571h19.75213764c.3812934 0 .6899427.2836359.7125721.66594517l.0160596 14.44968955-5.47227-5.9204465z" fill="#c7c7c7" transform="translate(.884615 .230769)"/></svg>