<svg height="18" viewBox="0 0 18 18" width="18" xmlns="http://www.w3.org/2000/svg"><g fill="none" opacity=".697382"><path d="m8.59349674 0h.80815009c.02886251.00501957.05688842.01129402.08533262.0146404.39194443.04726758.78849015.07111051 1.17541505.14473081 2.0546756.38901635 3.7843343 1.36992319 5.1383622 2.95903408 1.8614223 2.18643922 2.5319527 4.71964679 2.0337608 7.54608061-.2982459 1.6941035-1.0570369 3.1732023-2.2278507 4.4310218-1.4983404 1.6100257-3.3442857 2.5566322-5.5298884 2.8297802-1.2000945.150587-2.38596693.0610714-3.54632322-.2785859-2.18225626-.6366482-3.89225502-1.9170558-5.12455845-3.8257457-.76590209-1.1841993-1.21055196-2.4863583-1.35570108-3.88974527-.01924166-.18279585-.03346377-.3655917-.05019565-.54880586v-.77301315c.00501957-.03430037.01254892-.06818244.01422211-.10248279.03011739-.6040211.11754149-1.20009454.27649441-1.78320078.65672654-2.40771841 2.06429646-4.24906249 4.21057916-5.51817605 1.09552024-.647524 2.28515734-1.02357314 3.55092453-1.15450015.17986778-.01882338.36057215-.03388206.54085822-.05103225z" fill="#000" opacity=".799572"/><path d="m6.90357623 13.1901642 5.99252507-4.1942656c-1.9977233-1.29799925-3.99537113-2.59611476-5.99294336-3.89434651v8.08861211z" fill="#fff"/></g></svg>