<svg height="20" viewBox="0 0 34 20" width="34" xmlns="http://www.w3.org/2000/svg"><path d="m27.0819607 5.21741942 4.3341793-2.47334262c.8033697-.47948484 1.4460654-.07991414 1.4460654.71922726v12.53453284c0 .8790555-.6426957 1.1987121-1.4460654.7192272l-4.3341793-2.4733426c-.8033697-.4794848-1.4460654-.9589697-1.4460654-1.7581111v-5.59398975c.0040169-.79514569.6426957-1.19471639 1.4460654-1.67420123zm-6.9009454-4.71093853h-16.3726736c-1.68707628 0-3.04878785 1.35854038-3.04878785 3.0327416v13.09393181c0 1.6781969 1.36572841 3.0327416 3.04878785 3.0327416h16.3726736c1.6870763 0 3.0487879-1.3585404 3.0487879-3.0327416v-13.09393181c0-1.67420122-1.3617116-3.0327416-3.0487879-3.0327416zm-9.8734131 7.34410944c-.2410109 1.11879795-1.12471749 1.99785349-2.1650812 2.23759587-2.00842414.3995707-3.69148357-1.35854034-3.28979875-3.27248398.2410109-1.11879796 1.12471753-1.99785349 2.16508123-2.15368607 2.00842415-.48348054 3.69148362 1.19471639 3.28979872 3.18857418z" fill="#c7c7c7" transform="translate(.173077 -.096154)"/></svg>